PathFileType	4	(X/Y/Z)	Patient4_TMGait_0pt6_02_left_44.trc.trc
DataRate	CameraRate	NumFrames	NumMarkers	Units	OrigDataRate	OrigDataStartFrame	OrigNumFrames
81.871345029240	81.871345029240	6	33	mm	81.871345029240	106	       141
Frame#	Time	Sacral			L.Shoulder			Chest			R.Shoulder			Neck			R.ASIS			L.ASIS			R.Thigh.Superior			R.Thigh.Lateral			R.Thigh.Inferior			R.Patella			L.Thigh.Superior			L.Thigh.Lateral			L.Thigh.Inferior			L.Patella			L.Shank.Superior			L.Shank.Lateral			L.Shank.Inferior			R.Shank.Superior			R.Shank.Lateral			R.Shank.Inferior			R.Heel			R.Midfoot.Superior			R.Midfoot.Lateral			R.Toe			L.Heel			L.Midfoot.Lateral			L.Midfoot.Superior			L.Toe			L.Elbow			L.Wrist			R.Elbow			R.Wrist			
		X1	Y1	Z1	X2	Y2	Z2	X3	Y3	Z3	X4	Y4	Z4	X5	Y5	Z5	X6	Y6	Z6	X7	Y7	Z7	X8	Y8	Z8	X9	Y9	Z9	X10	Y10	Z10	X11	Y11	Z11	X12	Y12	Z12	X13	Y13	Z13	X14	Y14	Z14	X15	Y15	Z15	X16	Y16	Z16	X17	Y17	Z17	X18	Y18	Z18	X19	Y19	Z19	X20	Y20	Z20	X21	Y21	Z21	X22	Y22	Z22	X23	Y23	Z23	X24	Y24	Z24	X25	Y25	Z25	X26	Y26	Z26	X27	Y27	Z27	X28	Y28	Z28	X29	Y29	Z29	X30	Y30	Z30	X31	Y31	Z31	X32	Y32	Z32	X33	Y33	Z33	

106	54.972500000000	845.162208197336	1018.768779836340	541.846306110124	1039.802145859740	1436.535952877048	354.962953986831	1147.960435663679	1357.834391385962	507.174187325678	1082.385234366248	1435.554677412501	686.135656191692	1051.563644056394	1495.978206914176	507.383310092382	1073.476517525740	944.258908730633	646.379318633849	1044.633623636087	963.660850030853	374.876934075758	1095.099342851440	737.553979961128	616.448773254172	1005.140868386565	636.368308619006	677.317455166481	1073.404254604455	578.658159602003	594.112255481354	1065.983518852312	495.443417844077	597.893991775764	1136.806444600341	803.060667273942	406.490869902890	1111.139397837194	675.339318336048	322.404870473596	1220.537010589090	625.281606358406	385.115563686506	1248.589684914196	541.563766555095	376.056545836219	1200.824756103781	464.137135124244	367.892606415537	1079.735111181781	382.299056143725	316.824812100282	1107.249782235236	254.842439421732	371.208276755649	1041.068478880835	408.079513150687	604.201970979223	973.156969330283	301.789978485754	664.457807429097	1016.701433406470	209.313929040269	598.282703744864	885.473920650459	43.145681520801	566.561180602938	1057.159737896288	97.599421306960	599.302381005101	970.213354976092	36.968262901286	639.640947446144	1178.527044438219	43.042836301636	623.192520031540	947.128360008885	131.901147717601	406.075764615864	1016.172753006941	111.199897912287	324.938880827780	1112.707182931815	151.049590117777	348.610092453453	1222.054940995782	71.519337410575	317.331777492610	971.227643855199	1084.240968500843	246.146824368561	1002.817892252018	825.473400480123	248.595910990945	1171.325317463184	1100.884812797550	807.910380346129	1389.889812790231	977.739699210791	738.027703499776	
107	54.984714285714	844.293153094979	1018.746713399233	542.628088991308	1038.190504340847	1436.531283648139	355.056263093874	1147.219543574914	1357.550597695134	506.496253570304	1082.899389461679	1435.294527282847	685.902470231644	1050.842870114246	1495.795291168908	507.459719120715	1072.946187105843	943.907798880946	645.686668859810	1042.935832993585	963.831612864421	374.172067735730	1092.541922406973	736.779618187141	614.874910133503	1002.479047412752	636.112221828698	676.966084687674	1069.392735746082	577.925115395749	593.249516908658	1061.314957401294	494.740998066477	597.274579717041	1135.034925528452	803.851728696727	405.915027458890	1110.202484868472	675.838841712027	321.871065292650	1219.242947441622	626.311337601508	385.200300698705	1248.658722056210	544.459633061607	376.112996303014	1204.804630769680	466.430625278896	367.527781732947	1089.686954480156	377.416026121117	315.385602071642	1125.003884571509	251.612925101519	369.795396281953	1035.767534332452	407.483190283399	603.764081432009	967.526432853493	301.583895742537	664.277776046691	1010.112691456699	208.875642843736	597.948304537309	878.044168915798	43.046904187988	566.561071991311	1049.613662634717	97.384283856855	598.952753460211	962.793422516931	36.932294702894	639.662062460221	1171.074937452251	43.111004015831	623.165989052581	973.155411974232	118.615186039096	403.523392199754	1043.858422892709	102.533039938384	322.842680389899	1137.447004731755	148.248912961584	347.168772540334	1251.720978911899	75.813298854041	316.646809588799	963.156234633407	1085.369192039025	247.111332224126	982.754251149941	825.646748536854	249.215088029895	1179.808427062585	1104.006169825150	807.100745468944	1404.840429934469	997.372561203273	731.965444819373	
108	54.996928571429	843.499717634508	1018.650084075787	543.258026733427	1036.604603763642	1436.519331024085	355.060418154329	1146.522399771445	1357.222013407621	505.694091931709	1083.440562453080	1434.922150640961	685.553341979309	1050.179760711123	1495.556585995465	507.452738322972	1072.562801046862	943.549729091380	644.891922103424	1041.451449568030	963.912597342455	373.295480013535	1090.181676147784	735.986465933554	613.379841844119	999.926911309779	635.837389554338	676.579589652622	1065.518208049939	577.186993741960	592.409828946941	1056.772744662698	494.025603268787	596.641085954091	1133.044353441417	803.988153659660	405.219885780555	1108.660826065551	675.745927004548	321.239371348159	1217.150871849167	626.412835459908	385.289845243993	1247.735778301556	546.600904856095	376.265384121657	1207.865991874071	468.305467889500	367.256134392644	1099.381267709735	372.369515012659	313.825776275660	1142.344467018795	248.791379589153	368.476086302097	1030.568630082131	406.865238082698	603.295542819192	962.003191214406	301.382281776502	664.112273087317	1003.569371614636	208.433422689641	597.608406045874	870.616958534225	42.972350037309	566.576651689467	1042.066136731474	97.144866327469	598.571372407397	955.380973053979	36.901104548620	639.688933490653	1163.633645953146	43.151139794227	623.130782802288	999.407974885929	106.239747519465	400.823468894214	1071.744928546561	94.740386223420	320.845943009653	1161.932124616748	146.195653556928	345.994339940843	1280.777467693853	81.100029595286	316.718042852601	955.047243347130	1086.786525334390	247.682428067248	963.895273242423	826.703933140105	250.029228740309	1187.805675248064	1107.108686569902	806.076820550250	1418.032059285178	1017.430473314163	725.901266973926	
109	55.009142857143	842.820691325225	1018.476707840276	543.722500338749	1035.064252341729	1436.504423311335	354.962471272807	1145.867731937201	1356.870624215995	504.775110197801	1083.973465665559	1434.465969098107	685.081326837859	1049.573740939023	1495.276606458861	507.343299331028	1072.329315919606	943.193417109957	643.996781104806	1040.161779907104	963.882182982340	372.281879758011	1088.037655623418	735.180248652236	612.009296029477	997.471032630730	635.552376351445	676.156080736111	1061.792808084948	576.446842650720	591.609242159229	1052.365357640619	493.302087118418	595.995983410380	1130.882782386535	803.493298364506	404.419513942206	1106.557321616465	675.094764974053	320.491756785032	1214.357581501149	625.644700962637	385.330719646977	1245.918867053604	548.010869315645	376.472831130095	1210.036924047754	469.774178864677	367.042585851168	1108.670926163934	367.306900562668	312.214213164742	1159.007234467327	246.475421105993	367.285594071626	1025.482843643813	406.237132114956	602.798840759642	956.582794592303	301.198575060574	663.957265397357	997.081433909237	207.998581734466	597.266864774596	863.196107678015	42.927523326150	566.607989305284	1034.532134469253	96.897335387882	598.183615368774	947.977779030365	36.877119907196	639.721568781302	1156.208934980837	43.159979491673	623.090936135396	1025.439374833581	95.042857702509	398.154454646869	1099.335028984113	87.979528015323	319.066238945079	1185.766447311274	144.952624809833	345.100843573388	1308.751231527906	87.294147979230	317.465845859333	946.921656028348	1088.492305511837	247.895924273391	946.285280892613	828.477509340217	251.002535222361	1195.347737104198	1110.171476618289	804.821568895658	1429.448991631112	1037.705731203126	719.890770689372	
110	55.021357142857	842.292546487510	1018.222207567808	544.010533354779	1033.586929616234	1436.485937023019	354.748541745733	1145.253650036052	1356.516636200859	503.747205659235	1084.463385479852	1433.955676285560	684.479816138858	1049.017463627628	1494.967392638860	507.112110699529	1072.247193726466	942.842966453585	643.002444687581	1039.060921540466	963.730702578586	371.158225072501	1086.115155598976	734.363923800944	610.780689719571	995.101332523140	635.262570933030	675.691192251327	1058.221729929474	575.704292596109	590.851289977493	1048.096221235796	492.571582585805	595.338363374472	1128.614795180185	802.413684169769	403.521365449703	1103.961604478655	673.936460621471	319.618652985445	1210.992754661090	624.099946828709	385.266765870227	1243.338626330996	548.732327395206	376.682574315065	1211.366877763645	470.848727182358	366.837347216912	1117.364858640354	362.355639650609	310.642121698687	1174.704607240490	244.700961561349	366.248991627970	1020.517776122291	405.608259606537	602.277213404608	951.255709535396	301.042447752090	663.805412882712	990.654560892554	207.579329612655	596.926360958949	855.784345335718	42.915148126295	566.653200402770	1027.025487664384	96.659474292059	597.817258362390	940.584321602543	36.861518283308	639.759110978139	1148.804437554370	43.137001186433	623.050911094361	1050.734442461361	85.209694982920	395.729823693253	1126.042535718540	82.312470567852	317.622096817953	1208.509677201617	144.487710515489	344.473865870693	1335.135193188082	94.177957756138	318.720665318337	938.814265169906	1090.473677967488	247.796248307025	929.923686488746	830.807467933664	252.095746864403	1202.456146108061	1113.185168918938	803.326830554624	1439.103168811376	1057.993586740553	713.981599497821	
111	55.033571428571	841.945076612020	1017.880315939182	544.112215480867	1032.185950389847	1436.457258098551	354.404408174076	1144.677381680963	1356.175750305456	502.617608870897	1084.877985774833	1433.417827429949	683.742642136216	1048.496725376179	1494.636197056752	506.741374252935	1072.316482973095	942.497326586611	641.911740816347	1038.155419356495	963.456076528183	369.944373614531	1084.408176214463	733.537083505344	609.684199042993	992.813661285855	634.969071626879	675.179186191501	1054.805968061475	574.955357930526	590.128478448953	1043.966043620419	491.830662324701	594.664627944124	1126.321563347115	800.817454803904	402.529051860321	1100.972653811406	672.335304611015	318.625866867090	1207.215009376398	621.898824384093	385.048476274608	1240.154557827520	548.820735795133	376.835838605070	1211.924140814743	471.533933480298	366.585362793661	1125.241065360612	357.611967112794	309.214647064216	1189.134664261030	243.435501816798	365.382797824700	1015.679508117524	404.983649084787	601.733971004958	946.010554204962	300.918621987473	663.647610041333	984.290695095626	207.179200578758	596.588479214017	848.383037498672	42.934691012764	566.709027721071	1019.556403769733	96.447051865411	597.496387704480	933.199851358008	36.853869570712	639.800110315790	1141.421063597932	43.084764836698	623.015188586667	1074.722878594789	76.832819193926	393.775459841448	1151.214183160324	77.702970438193	316.620885432489	1229.690791463376	144.671890062803	344.077117018054	1359.405578170844	101.406076012035	320.245179395088	930.774511603400	1092.702980006975	247.431506430132	914.777683926136	833.545288769404	253.269893776242	1209.140432811855	1116.148696087279	801.595603228804	1447.033499244458	1078.097014392596	708.212642181779	
